<svg width="64" height="64" viewBox="0 0 64 64" fill="none" xmlns="http://www.w3.org/2000/svg">
<rect width="64" height="64" fill="white"/>
<path d="M10 32.0001C10 32.8361 10.22 33.6721 10.6453 34.3907L18.36 47.7521C19.152 49.1161 20.3546 50.2307 21.8506 50.7294C24.7986 51.7121 27.8493 50.4507 29.3013 47.9281L31.164 44.7014L23.816 32.0001L31.5747 18.5508L33.4373 15.3242C33.9947 14.3562 34.7427 13.5642 35.6227 12.9335H34.816H23.6546C21.5573 12.9335 19.6213 14.0482 18.58 15.8668L10.6453 29.6095C10.22 30.3281 10 31.1641 10 32.0001Z" fill="#6565EC"/>
<path d="M54 32.0001C54 31.1641 53.78 30.328 53.3547 29.6093L45.5373 16.072C44.0853 13.564 41.0347 12.3027 38.0867 13.2707C36.5907 13.7694 35.388 14.884 34.596 16.248L32.836 19.284L40.184 32.0001L32.4253 45.4492L30.5627 48.6759C30.0053 49.6292 29.2573 50.4359 28.3773 51.0666H29.184H40.3453C42.4427 51.0666 44.3787 49.9519 45.42 48.1332L53.3547 34.3907C53.78 33.6721 54 32.8361 54 32.0001Z" fill="#6565EC"/>
</svg>
